<?xml version="1.0" encoding="UTF-8"?><svg id="Layer_2" xmlns="http://www.w3.org/2000/svg" viewBox="0 0 1129.35 383.78"><defs><style>.cls-1{fill:#ff733c;}</style></defs><g id="Layer_1-2"><path class="cls-1" d="m676.35,99.51c0,9.23-9.23,20.14-23.49,20.14h-9.23c-23.22,2.52-30.49,14.55-51.75,66.85l-39.16,96.22-10.07,24.33c-5.03,12.31-13.99,17.06-21.82,17.06-8.95,0-16.5-5.87-16.5-15.94,0-3.08.56-6.15,1.96-9.79l6.43-15.66,39.16-95.94c14.27-34.68,25.45-55.38,40.84-67.13h-50.63c-33,0-48.67,8.39-48.67,25.73s19.86,13.99,19.86,29.09c0,8.95-6.15,16.22-15.38,16.22-23.77,0-39.16-20.7-39.16-43.08,0-28.81,24.61-61.53,85.03-61.81h114.68c12.31,0,17.9,6.43,17.9,13.71Z"/><path class="cls-1" d="m795.22,234.04c-2.8,7.27-5.6,13.99-8.67,21.26-15.66,36.92-34.4,54.26-66.29,54.26-22.1,0-39.72-13.43-39.72-32.73,0-8.67,3.92-19.58,15.66-48.11l9.79-23.77c.56-1.68,1.12-2.8,1.12-3.92,0-3.08-1.68-5.04-4.76-6.43l-19.02-8.39-19.58,48.95c-2.24,6.15-6.99,8.67-11.75,8.67-5.87,0-11.75-3.92-11.75-10.91,0-1.68.28-3.08,1.12-5.32,3.08-7.27,11.19-27.69,20.98-51.75-8.39-5.59-12.59-14.54-12.59-23.49,0-17.06,12.03-25.73,24.05-25.73,13.99,0,21.82,10.63,21.82,22.94,0,1.12,0,2.24-.28,3.64l38.04,16.22c10.63,4.76,15.94,11.75,15.94,20.7,0,3.64-.84,7.55-2.52,12.03l-10.63,26.57c-7.83,18.46-11.47,28.25-12.87,31.61-3.92,10.91.56,20.14,10.07,20.14s20.7-8.95,29.09-29.09c1.68-3.64,4.48-10.63,10.35-24.89,3.36-7.83,8.39-10.63,15.66-8.39,7.27,2.24,9.79,8.11,6.71,15.94Z"/><path class="cls-1" d="m870.46,234.04c-2.8,7.27-5.59,13.99-8.67,21.26-15.66,36.92-34.4,54.26-66.29,54.26-22.1,0-39.72-13.43-39.72-32.73,0-8.67,3.92-19.58,15.66-48.11l21.82-53.7c5.59-13.43,14.26-19.02,22.38-19.02,8.67,0,16.22,6.99,16.22,17.34,0,3.36-.56,6.71-2.24,10.63l-2.52,6.15-15.66,38.6c-7.83,18.46-11.47,28.25-12.87,31.61-3.92,10.91.56,20.14,10.07,20.14s20.7-8.95,29.09-29.09c1.68-3.64,4.48-10.63,10.35-24.89,3.36-7.83,8.39-10.63,15.66-8.39s9.79,8.11,6.71,15.94Zm-57.34-112.44c0-12.03,9.51-21.54,21.26-21.54s21.26,9.51,21.26,21.54-9.51,21.26-21.26,21.26-21.26-9.51-21.26-21.26Z"/><path class="cls-1" d="m975.35,170.27c0,5.59-3.08,12.31-10.35,18.46l-34.68,28.25,22.1,64.33c.84,2.8,1.12,5.32,1.12,7.55,0,12.87-10.07,20.7-20.14,20.7-7.27,0-14.83-4.48-17.9-13.99l-25.45-74.96-19.3,47.55-10.07,24.33c-5.04,12.31-13.99,17.06-21.82,17.06-8.95,0-16.5-5.87-16.5-15.94,0-3.08.56-6.15,1.96-9.79l6.43-15.66,73.28-180.41c5.59-13.43,14.27-19.02,22.38-19.02,8.67,0,16.22,6.99,16.22,17.34,0,3.36-.56,6.71-2.24,10.63l-2.52,6.15-38.32,94.54,42.79-34.12c6.43-5.04,12.59-7.27,17.9-7.27,8.95,0,15.1,6.15,15.1,14.27Z"/><path class="cls-1" d="m1128.07,234.04l-6.71,16.5c-18.18,46.43-54.54,60.98-86.71,60.98-42.8,0-63.77-22.94-63.77-53.7,0-46.15,39.44-103.49,85.87-103.77,26.57,0,39.44,15.94,39.44,33.56,0,20.42-17.62,42.8-51.47,42.8h-28.53c-2.52,8.11-4.2,16.5-4.2,24.05,0,16.22,9.79,27.97,30.21,27.97s45.03-10.07,58.46-43.91l5.04-12.03c3.36-7.83,8.39-10.63,15.66-8.39,7.27,2.24,9.79,8.11,6.71,15.94Zm-101.53-26.85h17.62c14.27,0,21.54-7.83,21.54-14.82,0-5.04-3.36-9.23-11.47-9.23-8.95,0-19.3,10.07-27.69,24.05Z"/><path class="cls-1" d="m316.85,227.71c0-16.46,8.96-30.81,22.26-38.47-4.92-12.43-11-23.81-17.78-34.17h20.29c5.84,0,10.58-4.74,10.58-10.58s-4.74-10.58-10.58-10.58h-36.17c-27.12-31.88-58.98-51.14-74.71-59.41l-10.88,39.7c32.67,11.76,55.8,43.55,54.54,80.56-1.44,42.53-35.55,77.33-78.04,79.56-47.61,2.51-87.02-35.36-87.02-82.44s36.96-82.55,82.56-82.55c3.2,0,6.36.2,9.47.56l10.81-39.43h-30.87c-5.24,0-9.5-4.25-9.5-9.5s4.24-9.48,9.47-9.5l140.95-.4s-.06-.05-.09-.08h27.39c5.84,0,10.58-4.74,10.58-10.58s-4.74-10.58-10.58-10.58h-54.87C264.63,10.73,228.94-.23,190.66,0,84.85.67,0,86.08,0,191.89s85.92,191.89,191.89,191.89c77.46,0,144.2-45.91,174.51-112-1.7.2-3.42.32-5.18.32-24.51,0-44.37-19.87-44.37-44.38Z"/><path class="cls-1" d="m184.15,172.66l8.19-29.85c-.15,0-.29-.01-.44-.01-27.11,0-49.09,21.98-49.09,49.09s21.98,49.09,49.09,49.09,49.09-21.98,49.09-49.09c0-20.35-12.39-37.81-30.03-45.24l-7.74,28.23c3.55,3.1,5.78,7.66,5.78,12.74,0,9.35-7.58,16.92-16.92,16.92s-16.92-7.58-16.92-16.92c0-6.48,3.65-12.12,9-14.95Z"/><path class="cls-1" d="m377.88,218.2c-3.36-6.05-9.82-10.14-17.23-10.14-10.88,0-19.7,8.83-19.7,19.71s8.82,19.71,19.7,19.71c8.89,0,16.43-5.9,18.87-14,.08-.25.16-.52.22-.78.43-1.59.66-3.27.66-4.99,0-3.02-.71-5.89-1.96-8.43-.18-.37-.37-.73-.57-1.09Z"/><path class="cls-1" d="m397.62,79.54h-88c-5.84,0-10.58,4.74-10.58,10.58s4.74,10.58,10.58,10.58h88c5.84,0,10.58-4.74,10.58-10.58s-4.74-10.58-10.58-10.58Z"/><path class="cls-1" d="m376.03,50.12c5.7,0,10.32-4.62,10.32-10.32s-4.62-10.32-10.32-10.32-10.32,4.62-10.32,10.32,4.62,10.32,10.32,10.32Z"/><path class="cls-1" d="m425.06,80.06c-5.7,0-10.32,4.62-10.32,10.32s4.62,10.32,10.32,10.32,10.32-4.62,10.32-10.32-4.62-10.32-10.32-10.32Z"/><path class="cls-1" d="m370.09,135.28c-5.7,0-10.32,4.62-10.32,10.32s4.62,10.32,10.32,10.32,10.32-4.62,10.32-10.32-4.62-10.32-10.32-10.32Z"/></g></svg>